<svg xmlns="http://www.w3.org/2000/svg" id="b368505d-30f3-440a-8098-d31d5babc981" width="534.14" height="692" data-name="Layer 1" viewBox="0 0 534.14 692"><circle id="a334b1ca-40a8-46da-b3aa-ee84e59d0f08" cx="267.07" cy="179.86" r="179.86" fill="#ffd9cb" data-name="319da30a-b754-4c25-967a-210e088b184d"/><path fill="#fff" d="M625.89005,343.82c0,6.77-11.59,12.26-25.89,12.26s-25.89-5.49-25.89-12.26S585.7,331.55,600,331.55,625.89005,337,625.89005,343.82Z" transform="translate(-332.93002 -104)"/><circle cx="193.49" cy="144.44" r="17.71" fill="#383f4d"/><circle cx="340.65" cy="144.44" r="17.71" fill="#383f4d"/><circle cx="198.94" cy="138.98" r="5.45" fill="#fff"/><circle cx="346.1" cy="138.98" r="5.45" fill="#fff"/><path fill="#69f0ae" d="M706.28006,210.28h-64a16.4,16.4,0,0,0-16.35,16.35v43.6a16.4,16.4,0,0,0,16.35,16.35h64a16.4,16.4,0,0,0,16.35-16.35v-43.6A16.4,16.4,0,0,0,706.28006,210.28ZM709,259.34a16.4,16.4,0,0,1-16.35,16.35H655.87a16.4,16.4,0,0,1-16.35-16.35v-21.8a16.4,16.4,0,0,1,16.35-16.35h36.79A16.4,16.4,0,0,1,709,237.53Z" transform="translate(-332.93002 -104)"/><path fill="#69f0ae" d="M477.37,226.63v43.6a16.4,16.4,0,0,0,16.35,16.35h64a16.4,16.4,0,0,0,16.35-16.35v-43.6a16.4,16.4,0,0,0-16.35-16.35h-64A16.4,16.4,0,0,0,477.37,226.63ZM491,237.53a16.4,16.4,0,0,1,16.35-16.35h36.79a16.4,16.4,0,0,1,16.35,16.35v21.8a16.4,16.4,0,0,1-16.35,16.35h-36.8A16.4,16.4,0,0,1,491,259.34Z" transform="translate(-332.93002 -104)"/><path fill="#69f0ae" d="M623.31,253.92a41.48,41.48,0,0,0-45.26,0c-3.78,2.42-8.93,2.93-12,.11l-3.85-3.85c-3-2.78-1.31-9.51,4.65-13.39a62,62,0,0,1,67.59,0c6,3.88,7.68,10.62,4.65,13.39L635.28006,254C632.25,256.84,627.1,256.34,623.31,253.92Z" transform="translate(-332.93002 -104)"/><path fill="#bf655b" d="M581.91,416.44c1.36-5.54,7.84-8,13.5-8.76,8.4-1.17,18.36,0,23,7.13" opacity=".2" transform="translate(-332.93002 -104)" style="isolation:isolate"/><rect width="34.06" height="81.76" x="433.3" y="145.8" fill="#ffd9cb" rx="12"/><rect width="34.06" height="81.76" x="66.77" y="145.79" fill="#ffd9cb" rx="12"/><path fill="#ffd9cb" d="M546.69022,544.24907,653.14005,544.12V448.74a16.4,16.4,0,0,0-16.35-16.35h-73.58a16.4,16.4,0,0,0-16.35,16.35v95.38" transform="translate(-332.93002 -104)"/><path fill="#bf655b" d="M538.74,147.07c12-2.69,23.59,6.36,35.87,6.64,9.59.22,18.5-4.92,28-6.12s18.78,1.5,28.15,2.86,19.82,1.07,27.1-5" opacity=".2" transform="translate(-332.93002 -104)" style="isolation:isolate"/><path fill="#bf655b" d="M538.74,163.42c12-2.69,23.59,6.36,35.87,6.64,9.59.22,18.5-4.92,28-6.12s18.78,1.5,28.15,2.86,19.82,1.07,27.1-5" opacity=".2" transform="translate(-332.93002 -104)" style="isolation:isolate"/><path fill="#ffd9cb" d="M546.69022,544.24907" transform="translate(-332.93002 -104)"/><path fill="#6c63ff" d="M546.86008,522.12H527.09c-106.79,0-194.16,87.37-194.16,194.16v63.37A16.4,16.4,0,0,0,349.28,796H850.72a16.4,16.4,0,0,0,16.35-16.35V716.28C867.07,609.49,779.7,522.12,672.91,522.12l-19.76995,0c-37.02649,7.18726-71.88623,7.36957-104.44983.12909" transform="translate(-332.93002 -104)"/></svg>